# xmcd
#
# Track frame offsets:
#	150
#	5632
#	23140
#	43783
#	67927
#	89224
#	114916
#	140626
#	164438
#	194834
#	219929
#	247088
#	267656
#	289281
#	313410
#
# Disc length: 4589 seconds
#
# Revision: 0
# Processed by: cddbd v1.5.1PL2 Copyright (c) Steve Scherf et al.
# Submitted via: EasyCDDAExtractor 8.1.2.3
#
DISCID=f211eb0f
DTITLE=Diam's - Dans ma bulle
DYEAR=2006
DGENRE=Rap
TTITLE0=Introduction
TTITLE1=La boulette
TTITLE2=Ma France à moi
TTITLE3=Feuile blanche
TTITLE4=Jeune demoiselle
TTITLE5=Car tu portes mon nom
TTITLE6=Marine
TTITLE7=Dans ma bulle
TTITLE8=Par amour
TTITLE9=Big up
TTITLE10=Confessions nocturnes ft Vitaa
TTITLE11=T.S.
TTITLE12=Me  revoila
TTITLE13=Cause a effet
TTITLE14=Petite banlieusarde
EXTD=
EXTT0=
EXTT1=
EXTT2=
EXTT3=
EXTT4=
EXTT5=
EXTT6=
EXTT7=
EXTT8=
EXTT9=
EXTT10=
EXTT11=
EXTT12=
EXTT13=
EXTT14=
PLAYORDER=
